<svg width="21" height="18" viewBox="0 0 21 18" fill="none" xmlns="http://www.w3.org/2000/svg">
<path d="M19.016 10.636L17.881 10.4046C17.8567 10.3997 17.8311 10.4046 17.81 10.4182C17.789 10.4319 17.7743 10.4538 17.7694 10.4781C17.658 11.024 17.4839 11.5603 17.2512 12.0718C17.2231 12.1331 17.194 12.1952 17.1644 12.256C16.2947 14.0395 14.7825 15.3775 12.9066 16.0232C12.1192 16.2945 11.3033 16.4317 10.4822 16.4317C9.35337 16.4317 8.26006 16.1771 7.23189 15.6757C5.56666 14.8636 4.28543 13.4908 3.60257 11.7938L5.15686 12.5517C5.17943 12.5626 5.20545 12.5644 5.2291 12.556C5.25275 12.548 5.27232 12.5308 5.28328 12.508L5.79113 11.467C5.81392 11.4199 5.79457 11.3633 5.74748 11.3401L2.31855 9.668C2.27168 9.64542 2.21513 9.66456 2.19212 9.71122L0.865314 12.4134C0.862734 12.4184 0.860799 12.424 0.859294 12.4293L0.824893 12.4996L0.509692 13.1432C0.486686 13.1902 0.506037 13.2468 0.552909 13.27L0.824893 13.4033L1.59311 13.7798C1.61547 13.7912 1.64171 13.7925 1.66536 13.7843C1.68901 13.7761 1.70857 13.7592 1.71975 13.7364L2.38778 12.3737C2.6718 13.0561 3.03753 13.6968 3.47701 14.281C4.31511 15.3956 5.37961 16.2724 6.64084 16.8875C7.70534 17.4065 8.84015 17.7017 10.0137 17.7647C10.171 17.7731 10.3308 17.7779 10.4877 17.7779C11.4585 17.7779 12.4196 17.6162 13.345 17.2975C14.4224 16.9266 15.4024 16.3607 16.2579 15.6149C17.1439 14.843 17.8563 13.9116 18.3757 12.8471C18.4105 12.7753 18.445 12.7022 18.4778 12.6295C18.7524 12.026 18.9586 11.3928 19.0902 10.7473C19.1005 10.6962 19.0674 10.6461 19.016 10.636Z" fill="white"/>
<path d="M20.495 4.77594C20.4871 4.75229 20.4699 4.73272 20.4471 4.72154L20.1755 4.58768L19.4082 4.2094C19.3856 4.19822 19.3598 4.1965 19.3359 4.20467C19.3121 4.21284 19.2927 4.23004 19.2813 4.2524L18.5963 5.64263C18.2314 4.75874 17.7279 3.94623 17.0984 3.22488C16.3271 2.3412 15.3972 1.63017 14.3347 1.112C13.2702 0.592759 12.1353 0.297554 10.9616 0.234557C10.8042 0.226171 10.6447 0.221871 10.4877 0.221871C9.51699 0.221871 8.55569 0.383342 7.6303 0.701982C6.5529 1.07308 5.5729 1.6392 4.71738 2.38463C3.83155 3.15672 3.11902 4.08792 2.59978 5.15263C2.27619 5.81614 2.0371 6.51599 1.88939 7.23283C1.88445 7.25734 1.88918 7.28292 1.90294 7.30399C1.9167 7.32506 1.9382 7.33969 1.96293 7.34463L3.09752 7.57856C3.14869 7.58909 3.19879 7.5562 3.20932 7.50503C3.33446 6.89849 3.53678 6.30572 3.81113 5.74347C4.68083 3.9602 6.19319 2.62221 8.06913 1.97633C8.85649 1.70521 9.67223 1.56782 10.4938 1.56782C11.6221 1.56782 12.7157 1.82217 13.7436 2.32357C15.3875 3.12533 16.6617 4.48396 17.3538 6.16618L15.8408 5.43687C15.7935 5.4143 15.7371 5.43386 15.7144 5.48116L15.2112 6.52481C15.1887 6.57189 15.2084 6.62844 15.2555 6.65102L18.6827 8.30292C18.6963 8.30915 18.7101 8.31216 18.7238 8.31216C18.7586 8.31216 18.7922 8.29281 18.8087 8.25927L20.1755 5.48598L20.4897 4.84861C20.5015 4.82582 20.503 4.79981 20.495 4.77594Z" fill="white"/>
<path fill-rule="evenodd" clip-rule="evenodd" d="M0.824893 13.4033V12.4996L0.859294 12.4293C0.860799 12.424 0.862734 12.4184 0.865314 12.4134L2.19212 9.71122C2.21513 9.66456 2.27168 9.64542 2.31855 9.668L5.74748 11.3401C5.79457 11.3633 5.81392 11.4199 5.79113 11.467L5.28328 12.508C5.27232 12.5308 5.25275 12.548 5.2291 12.556C5.20545 12.5644 5.17943 12.5626 5.15686 12.5517L3.60257 11.7938C4.28543 13.4908 5.56666 14.8636 7.23189 15.6757C8.26006 16.1771 9.35337 16.4317 10.4822 16.4317C11.3033 16.4317 12.1192 16.2945 12.9066 16.0232C14.7825 15.3775 16.2947 14.0395 17.1644 12.256C17.194 12.1952 17.2231 12.1331 17.2512 12.0718C17.4839 11.5603 17.658 11.024 17.7694 10.4781C17.7743 10.4538 17.789 10.4319 17.81 10.4182C17.8311 10.4046 17.8567 10.3997 17.881 10.4046L19.016 10.636C19.0674 10.6461 19.1005 10.6962 19.0902 10.7473C18.9586 11.3928 18.7524 12.026 18.4778 12.6295C18.445 12.7022 18.4105 12.7753 18.3757 12.8471C17.8563 13.9116 17.1439 14.843 16.2579 15.6149C15.4024 16.3607 14.4224 16.9266 13.345 17.2975C12.4196 17.6162 11.4585 17.7779 10.4877 17.7779C10.3308 17.7779 10.171 17.7731 10.0137 17.7647C8.84015 17.7017 7.70534 17.4065 6.64084 16.8875C5.37961 16.2724 4.31511 15.3956 3.47701 14.281C3.03753 13.6968 2.6718 13.0561 2.38778 12.3737L1.71975 13.7364C1.70857 13.7592 1.68901 13.7761 1.66536 13.7843C1.64171 13.7925 1.61547 13.7912 1.59311 13.7798L0.824893 13.4033ZM20.1755 5.48598V4.58768L19.4082 4.2094C19.3856 4.19822 19.3598 4.1965 19.3359 4.20467C19.3121 4.21284 19.2927 4.23004 19.2813 4.2524L18.5963 5.64263C18.2314 4.75874 17.7279 3.94623 17.0984 3.22488C16.3271 2.3412 15.3972 1.63017 14.3347 1.112C13.2702 0.592759 12.1353 0.297554 10.9616 0.234557C10.8042 0.226171 10.6447 0.221871 10.4877 0.221871C9.51699 0.221871 8.55569 0.383342 7.6303 0.701982C6.5529 1.07308 5.5729 1.6392 4.71738 2.38463C3.83155 3.15672 3.11902 4.08792 2.59978 5.15263C2.27619 5.81614 2.0371 6.51599 1.88939 7.23283C1.88445 7.25734 1.88918 7.28292 1.90294 7.30399C1.9167 7.32506 1.9382 7.33969 1.96293 7.34463L3.09752 7.57856C3.14869 7.58909 3.19879 7.5562 3.20932 7.50503C3.33446 6.89849 3.53678 6.30572 3.81113 5.74347C4.68083 3.9602 6.19319 2.62221 8.06913 1.97633C8.85649 1.70521 9.67223 1.56782 10.4938 1.56782C11.6221 1.56782 12.7157 1.82217 13.7436 2.32357C15.3875 3.12533 16.6617 4.48396 17.3538 6.16618L15.8408 5.43687C15.7935 5.4143 15.7371 5.43386 15.7144 5.48116L15.2112 6.52481C15.1887 6.57189 15.2084 6.62844 15.2555 6.65102L18.6827 8.30292C18.6963 8.30915 18.7101 8.31216 18.7238 8.31216C18.7586 8.31216 18.7922 8.29281 18.8087 8.25927L20.1755 5.48598Z" fill="white"/>
</svg>
